<svg xmlns="http://www.w3.org/2000/svg" width="1217.391" height="387.258" viewBox="0 0 1217.391 387.258">
  <g id="Group_6" data-name="Group 6" transform="translate(-132.609 -79.398)">
    <g id="Group_1" data-name="Group 1" transform="translate(46.358 43)">
      <g id="Kiakaha-logo" transform="translate(256.236 425.297) rotate(-171)">
        <path id="Path_9" data-name="Path 9" d="M65.317,0C46.981,6,14.752,19.311,3.34,56.3,36.4,81.024,8.753,100.033,0,100.823c1.429,13.123,9.768,28.45,15.278,32.654C0,100.823,26.987,76.957,37.862,66.824,34.785,62.537,28.362,17.868,65.317,0Z" transform="translate(0 2.224)" stroke="#000" stroke-miterlimit="10" stroke-width="1"/>
        <path id="Path_12" data-name="Path 12" d="M21.691,10.821c8,33.878,111.074,65.453,117.257,18.394,1.765-19.579-63.376-40.749-41.309-9.309C74.212-8.564,125.669-2.044,144.205,11.952c21.057,16.351,34.946,65.156-28.85,82.97-7.881-16.317-24.407-56.734-64.62-34.365-.151-32.688-31.347-31.61-37.242-18.721C4.033,64.609,34.536,71.851,36.35,53.735,37.711,64.912,27.362,76,12.016,69.7-4.389,61-6.525,27.406,21.691,10.821Z" transform="translate(20.54 71.74)" stroke="#000" stroke-miterlimit="10" stroke-width="1"/>
        <path id="Path_13" data-name="Path 13" d="M0,12.642c4.569,5.208,34.707,30.03,97.356,21.52C97.02,24.415,82.765-6.81,58.651,1.343c21.9-1.731,19.648,17.863,7.583,21.7C59.982,25.7,41.563,29.257,42.636,3.85,34.97,22.166,24.9,27.394,0,12.642Z" transform="translate(24.558 137.376)" stroke="#000" stroke-miterlimit="10" stroke-width="1"/>
        <path id="Path_14" data-name="Path 14" d="M0,0" transform="translate(37.686 176.888)" stroke="#000" stroke-miterlimit="10" stroke-width="1"/>
        <path id="Path_15" data-name="Path 15" d="M0,0" transform="translate(172.104 0)" stroke="#000" stroke-miterlimit="10" stroke-width="1"/>
      </g>
      <g id="Kiakaha-logo-2" data-name="Kiakaha-logo" transform="translate(131.681 32.322) rotate(9)">
        <path id="Path_9-2" data-name="Path 9" d="M65.317,0C46.981,6,14.752,19.311,3.34,56.3,36.4,81.024,8.753,100.033,0,100.823c1.429,13.123,9.768,28.45,15.278,32.654C0,100.823,26.987,76.957,37.862,66.824,34.785,62.537,28.362,17.868,65.317,0Z" transform="translate(0 4.689)" stroke="#000" stroke-miterlimit="10" stroke-width="1"/>
        <path id="Path_10" data-name="Path 10" d="M92.6,96.262C116.016,124.243,2.694,134.986.051,58.473-2.036-1.962,60.311-5.088,91.843,3.577s124.6,61.567,103.266,192.586c-7.988-47.542-69.408-31.761-70.35,11.7-3.145-6.237-19.345-23.242-33.024-23.744,79.576-27.148,68.73-115.092-6.159-121.773-30.805-1.863-36.1,14.42-35.662,27.094C51.245,113.793,103.63,118.816,92.6,96.262Z" transform="translate(48.095 0)" stroke="#000" stroke-miterlimit="10" stroke-width="1"/>
        <path id="Path_11" data-name="Path 11" d="M54.005,32.871C52.411,43.175,29.32,95.2,15.978,104.449,16.363,59.058-3.821,53.9.646,27.882,12.374-28.15,68.508,14.8,34.928,31.579,57.38,17.627,31.227-4.888,18.372,18.49c-7.593,20.267,4.472,30.586,18.521,27.66S54.005,32.871,54.005,32.871Z" transform="translate(185.854 179.512)" stroke="#000" stroke-miterlimit="10" stroke-width="1"/>
        <path id="Path_12-2" data-name="Path 12" d="M21.691,10.821c8,33.878,111.074,65.453,117.257,18.394,1.765-19.579-63.376-40.749-41.309-9.309C74.212-8.564,125.669-2.044,144.205,11.952c21.057,16.351,34.946,65.156-28.85,82.97-7.881-16.317-24.407-56.734-64.62-34.365-.151-32.688-31.347-31.61-37.242-18.721C4.033,64.609,34.536,71.851,36.35,53.735,37.711,64.912,27.362,76,12.016,69.7-4.389,61-6.525,27.406,21.691,10.821Z" transform="translate(20.54 74.205)" stroke="#000" stroke-miterlimit="10" stroke-width="1"/>
        <path id="Path_13-2" data-name="Path 13" d="M0,12.642c4.569,5.208,34.707,30.03,97.356,21.52C97.02,24.415,82.765-6.81,58.651,1.343c21.9-1.731,19.648,17.863,7.583,21.7C59.982,25.7,41.563,29.257,42.636,3.85,34.97,22.166,24.9,27.394,0,12.642Z" transform="translate(24.558 139.841)" stroke="#000" stroke-miterlimit="10" stroke-width="1"/>
        <path id="Path_14-2" data-name="Path 14" d="M0,0" transform="translate(37.686 179.354)" stroke="#000" stroke-miterlimit="10" stroke-width="1"/>
        <path id="Path_15-2" data-name="Path 15" d="M0,0" transform="translate(172.104 2.465)" stroke="#000" stroke-miterlimit="10" stroke-width="1"/>
      </g>
    </g>
    <text id="Kia_kaha" data-name="Kia kaha" transform="translate(445 398)" font-size="200" font-family="Georgia-Bold, Georgia" font-weight="700"><tspan x="0" y="0">Kia kaha</tspan></text>
  </g>
</svg>
